<svg xmlns="http://www.w3.org/2000/svg" width="860" height="704" viewBox="0 0 860 704" role="img" aria-label="momiji-ai-inc commit activity">
<style>
  .bg { fill: #ffffff; }
  .card { fill: #f6f8fa; stroke: #d0d7de; }
  .title { fill: #1f2328; font: 600 22px -apple-system, BlinkMacSystemFont, "Segoe UI", Helvetica, Arial, sans-serif; }
  .subtitle { fill: #656d76; font: 400 13px -apple-system, BlinkMacSystemFont, "Segoe UI", Helvetica, Arial, sans-serif; }
  .section { fill: #1f2328; font: 600 14px -apple-system, BlinkMacSystemFont, "Segoe UI", Helvetica, Arial, sans-serif; }
  .name { fill: #1f2328; font: 500 13px -apple-system, BlinkMacSystemFont, "Segoe UI", Helvetica, Arial, sans-serif; }
  .count { fill: #656d76; font: 500 12px ui-monospace, SFMono-Regular, Menlo, monospace; }
  .axis { fill: #8c959f; font: 400 11px ui-monospace, SFMono-Regular, Menlo, monospace; }
  .bar { fill: #2da44e; }
  .bar-bg { fill: #eaeef2; }
  .week { fill: #2da44e; }
  .week-empty { fill: #eaeef2; }
  @media (prefers-color-scheme: dark) {
    .bg { fill: #0d1117; }
    .card { fill: #151b23; stroke: #30363d; }
    .title { fill: #e6edf3; }
    .subtitle { fill: #9198a1; }
    .section { fill: #e6edf3; }
    .name { fill: #e6edf3; }
    .count { fill: #9198a1; }
    .axis { fill: #6e7681; }
    .bar { fill: #3fb950; }
    .bar-bg { fill: #21262d; }
    .week { fill: #3fb950; }
    .week-empty { fill: #21262d; }
  }
</style>
<rect class="bg" x="0" y="0" width="860" height="704" rx="6"/><rect class="card" x="0.5" y="0.5" width="859" height="703" rx="6" fill="none"/><text class="title" x="32" y="40">momiji-ai-inc / commit activity</text><text class="subtitle" x="32" y="62">9,571 commits · 29 contributors · 43 / 50 active repos</text><text class="subtitle" x="32" y="80">Updated 2026-09-24 04:43 UTC</text><text class="section" x="32" y="116">Top contributors</text><text class="name" x="32" y="150">a1t2s2u2</text><rect class="bar-bg" x="202" y="138" width="596" height="16" rx="3"/><rect class="bar" x="202" y="138" width="596" height="16" rx="3"/><text class="count" x="828" y="150" text-anchor="end">5,081</text><text class="name" x="32" y="186">KotaroMotoda</text><rect class="bar-bg" x="202" y="174" width="596" height="16" rx="3"/><rect class="bar" x="202" y="174" width="123" height="16" rx="3"/><text class="count" x="828" y="186" text-anchor="end">1,056</text><text class="name" x="32" y="222">ken-51122</text><rect class="bar-bg" x="202" y="210" width="596" height="16" rx="3"/><rect class="bar" x="202" y="210" width="84" height="16" rx="3"/><text class="count" x="828" y="222" text-anchor="end">724</text><text class="name" x="32" y="258">RinseiAraki</text><rect class="bar-bg" x="202" y="246" width="596" height="16" rx="3"/><rect class="bar" x="202" y="246" width="77" height="16" rx="3"/><text class="count" x="828" y="258" text-anchor="end">663</text><text class="name" x="32" y="294">a-sumikawa</text><rect class="bar-bg" x="202" y="282" width="596" height="16" rx="3"/><rect class="bar" x="202" y="282" width="49" height="16" rx="3"/><text class="count" x="828" y="294" text-anchor="end">424</text><text class="name" x="32" y="330">shinryuzz</text><rect class="bar-bg" x="202" y="318" width="596" height="16" rx="3"/><rect class="bar" x="202" y="318" width="46" height="16" rx="3"/><text class="count" x="828" y="330" text-anchor="end">393</text><text class="name" x="32" y="366">noriko-blued</text><rect class="bar-bg" x="202" y="354" width="596" height="16" rx="3"/><rect class="bar" x="202" y="354" width="39" height="16" rx="3"/><text class="count" x="828" y="366" text-anchor="end">337</text><text class="name" x="32" y="402" textLength="160" lengthAdjust="spacingAndGlyphs">camembertcheese-eng</text><rect class="bar-bg" x="202" y="390" width="596" height="16" rx="3"/><rect class="bar" x="202" y="390" width="22" height="16" rx="3"/><text class="count" x="828" y="402" text-anchor="end">190</text><text class="name" x="32" y="438">meihao550</text><rect class="bar-bg" x="202" y="426" width="596" height="16" rx="3"/><rect class="bar" x="202" y="426" width="20" height="16" rx="3"/><text class="count" x="828" y="438" text-anchor="end">171</text><text class="name" x="32" y="474">Noriko Chitose</text><rect class="bar-bg" x="202" y="462" width="596" height="16" rx="3"/><rect class="bar" x="202" y="462" width="14" height="16" rx="3"/><text class="count" x="828" y="474" text-anchor="end">121</text><text class="section" x="32" y="512">Weekly commits (last 52 weeks)</text><rect class="week-empty" x="32.00" y="528" width="13.35" height="116" rx="1"/><rect class="week" x="32.00" y="638" width="13.35" height="6" rx="1"><title>2025-10-02: 47 commits</title></rect><rect class="week-empty" x="47.35" y="528" width="13.35" height="116" rx="1"/><rect class="week" x="47.35" y="630" width="13.35" height="14" rx="1"><title>2025-10-09: 110 commits</title></rect><rect class="week-empty" x="62.69" y="528" width="13.35" height="116" rx="1"/><rect class="week" x="62.69" y="637" width="13.35" height="7" rx="1"><title>2025-10-16: 59 commits</title></rect><rect class="week-empty" x="78.04" y="528" width="13.35" height="116" rx="1"/><rect class="week" x="78.04" y="639" width="13.35" height="5" rx="1"><title>2025-10-23: 43 commits</title></rect><rect class="week-empty" x="93.38" y="528" width="13.35" height="116" rx="1"/><rect class="week" x="93.38" y="632" width="13.35" height="12" rx="1"><title>2025-10-30: 94 commits</title></rect><rect class="week-empty" x="108.73" y="528" width="13.35" height="116" rx="1"/><rect class="week" x="108.73" y="631" width="13.35" height="13" rx="1"><title>2025-11-06: 100 commits</title></rect><rect class="week-empty" x="124.08" y="528" width="13.35" height="116" rx="1"/><rect class="week" x="124.08" y="640" width="13.35" height="4" rx="1"><title>2025-11-13: 38 commits</title></rect><rect class="week-empty" x="139.42" y="528" width="13.35" height="116" rx="1"/><rect class="week" x="139.42" y="629" width="13.35" height="15" rx="1"><title>2025-11-20: 120 commits</title></rect><rect class="week-empty" x="154.77" y="528" width="13.35" height="116" rx="1"/><rect class="week" x="154.77" y="638" width="13.35" height="6" rx="1"><title>2025-11-27: 47 commits</title></rect><rect class="week-empty" x="170.12" y="528" width="13.35" height="116" rx="1"/><rect class="week" x="170.12" y="640" width="13.35" height="4" rx="1"><title>2025-12-04: 34 commits</title></rect><rect class="week-empty" x="185.46" y="528" width="13.35" height="116" rx="1"/><rect class="week" x="185.46" y="627" width="13.35" height="17" rx="1"><title>2025-12-11: 132 commits</title></rect><rect class="week-empty" x="200.81" y="528" width="13.35" height="116" rx="1"/><rect class="week" x="200.81" y="627" width="13.35" height="17" rx="1"><title>2025-12-18: 130 commits</title></rect><rect class="week-empty" x="216.15" y="528" width="13.35" height="116" rx="1"/><rect class="week" x="216.15" y="625" width="13.35" height="19" rx="1"><title>2025-12-25: 146 commits</title></rect><rect class="week-empty" x="231.50" y="528" width="13.35" height="116" rx="1"/><rect class="week" x="231.50" y="633" width="13.35" height="11" rx="1"><title>2026-01-01: 85 commits</title></rect><rect class="week-empty" x="246.85" y="528" width="13.35" height="116" rx="1"/><rect class="week" x="246.85" y="640" width="13.35" height="4" rx="1"><title>2026-01-08: 34 commits</title></rect><rect class="week-empty" x="262.19" y="528" width="13.35" height="116" rx="1"/><rect class="week" x="262.19" y="641" width="13.35" height="3" rx="1"><title>2026-01-15: 30 commits</title></rect><rect class="week-empty" x="277.54" y="528" width="13.35" height="116" rx="1"/><rect class="week" x="277.54" y="637" width="13.35" height="7" rx="1"><title>2026-01-22: 59 commits</title></rect><rect class="week-empty" x="292.88" y="528" width="13.35" height="116" rx="1"/><rect class="week" x="292.88" y="628" width="13.35" height="16" rx="1"><title>2026-01-29: 128 commits</title></rect><rect class="week-empty" x="308.23" y="528" width="13.35" height="116" rx="1"/><rect class="week" x="308.23" y="627" width="13.35" height="17" rx="1"><title>2026-02-05: 137 commits</title></rect><rect class="week-empty" x="323.58" y="528" width="13.35" height="116" rx="1"/><rect class="week" x="323.58" y="632" width="13.35" height="12" rx="1"><title>2026-02-12: 94 commits</title></rect><rect class="week-empty" x="338.92" y="528" width="13.35" height="116" rx="1"/><rect class="week" x="338.92" y="633" width="13.35" height="11" rx="1"><title>2026-02-19: 84 commits</title></rect><rect class="week-empty" x="354.27" y="528" width="13.35" height="116" rx="1"/><rect class="week" x="354.27" y="635" width="13.35" height="9" rx="1"><title>2026-02-26: 70 commits</title></rect><rect class="week-empty" x="369.62" y="528" width="13.35" height="116" rx="1"/><rect class="week" x="369.62" y="641" width="13.35" height="3" rx="1"><title>2026-03-05: 23 commits</title></rect><rect class="week-empty" x="384.96" y="528" width="13.35" height="116" rx="1"/><rect class="week" x="384.96" y="623" width="13.35" height="21" rx="1"><title>2026-03-12: 160 commits</title></rect><rect class="week-empty" x="400.31" y="528" width="13.35" height="116" rx="1"/><rect class="week" x="400.31" y="636" width="13.35" height="8" rx="1"><title>2026-03-19: 62 commits</title></rect><rect class="week-empty" x="415.65" y="528" width="13.35" height="116" rx="1"/><rect class="week" x="415.65" y="632" width="13.35" height="12" rx="1"><title>2026-03-26: 93 commits</title></rect><rect class="week-empty" x="431.00" y="528" width="13.35" height="116" rx="1"/><rect class="week" x="431.00" y="620" width="13.35" height="24" rx="1"><title>2026-04-02: 184 commits</title></rect><rect class="week-empty" x="446.35" y="528" width="13.35" height="116" rx="1"/><rect class="week" x="446.35" y="618" width="13.35" height="26" rx="1"><title>2026-04-09: 204 commits</title></rect><rect class="week-empty" x="461.69" y="528" width="13.35" height="116" rx="1"/><rect class="week" x="461.69" y="633" width="13.35" height="11" rx="1"><title>2026-04-16: 88 commits</title></rect><rect class="week-empty" x="477.04" y="528" width="13.35" height="116" rx="1"/><rect class="week" x="477.04" y="613" width="13.35" height="31" rx="1"><title>2026-04-23: 243 commits</title></rect><rect class="week-empty" x="492.38" y="528" width="13.35" height="116" rx="1"/><rect class="week" x="492.38" y="599" width="13.35" height="45" rx="1"><title>2026-04-30: 348 commits</title></rect><rect class="week-empty" x="507.73" y="528" width="13.35" height="116" rx="1"/><rect class="week" x="507.73" y="618" width="13.35" height="26" rx="1"><title>2026-05-07: 201 commits</title></rect><rect class="week-empty" x="523.08" y="528" width="13.35" height="116" rx="1"/><rect class="week" x="523.08" y="623" width="13.35" height="21" rx="1"><title>2026-05-14: 161 commits</title></rect><rect class="week-empty" x="538.42" y="528" width="13.35" height="116" rx="1"/><rect class="week" x="538.42" y="617" width="13.35" height="27" rx="1"><title>2026-05-21: 207 commits</title></rect><rect class="week-empty" x="553.77" y="528" width="13.35" height="116" rx="1"/><rect class="week" x="553.77" y="630" width="13.35" height="14" rx="1"><title>2026-05-28: 111 commits</title></rect><rect class="week-empty" x="569.12" y="528" width="13.35" height="116" rx="1"/><rect class="week" x="569.12" y="622" width="13.35" height="22" rx="1"><title>2026-06-04: 168 commits</title></rect><rect class="week-empty" x="584.46" y="528" width="13.35" height="116" rx="1"/><rect class="week" x="584.46" y="623" width="13.35" height="21" rx="1"><title>2026-06-11: 162 commits</title></rect><rect class="week-empty" x="599.81" y="528" width="13.35" height="116" rx="1"/><rect class="week" x="599.81" y="615" width="13.35" height="29" rx="1"><title>2026-06-18: 223 commits</title></rect><rect class="week-empty" x="615.15" y="528" width="13.35" height="116" rx="1"/><rect class="week" x="615.15" y="637" width="13.35" height="7" rx="1"><title>2026-06-25: 60 commits</title></rect><rect class="week-empty" x="630.50" y="528" width="13.35" height="116" rx="1"/><rect class="week" x="630.50" y="603" width="13.35" height="41" rx="1"><title>2026-07-02: 319 commits</title></rect><rect class="week-empty" x="645.85" y="528" width="13.35" height="116" rx="1"/><rect class="week" x="645.85" y="611" width="13.35" height="33" rx="1"><title>2026-07-09: 254 commits</title></rect><rect class="week-empty" x="661.19" y="528" width="13.35" height="116" rx="1"/><rect class="week" x="661.19" y="612" width="13.35" height="32" rx="1"><title>2026-07-16: 251 commits</title></rect><rect class="week-empty" x="676.54" y="528" width="13.35" height="116" rx="1"/><rect class="week" x="676.54" y="603" width="13.35" height="41" rx="1"><title>2026-07-23: 313 commits</title></rect><rect class="week-empty" x="691.88" y="528" width="13.35" height="116" rx="1"/><rect class="week" x="691.88" y="619" width="13.35" height="25" rx="1"><title>2026-07-30: 194 commits</title></rect><rect class="week-empty" x="707.23" y="528" width="13.35" height="116" rx="1"/><rect class="week" x="707.23" y="603" width="13.35" height="41" rx="1"><title>2026-08-06: 318 commits</title></rect><rect class="week-empty" x="722.58" y="528" width="13.35" height="116" rx="1"/><rect class="week" x="722.58" y="579" width="13.35" height="65" rx="1"><title>2026-08-13: 495 commits</title></rect><rect class="week-empty" x="737.92" y="528" width="13.35" height="116" rx="1"/><rect class="week" x="737.92" y="618" width="13.35" height="26" rx="1"><title>2026-08-20: 199 commits</title></rect><rect class="week-empty" x="753.27" y="528" width="13.35" height="116" rx="1"/><rect class="week" x="753.27" y="597" width="13.35" height="47" rx="1"><title>2026-08-27: 362 commits</title></rect><rect class="week-empty" x="768.62" y="528" width="13.35" height="116" rx="1"/><rect class="week" x="768.62" y="528" width="13.35" height="116" rx="1"><title>2026-09-03: 883 commits</title></rect><rect class="week-empty" x="783.96" y="528" width="13.35" height="116" rx="1"/><rect class="week" x="783.96" y="591" width="13.35" height="53" rx="1"><title>2026-09-10: 409 commits</title></rect><rect class="week-empty" x="799.31" y="528" width="13.35" height="116" rx="1"/><rect class="week" x="799.31" y="628" width="13.35" height="16" rx="1"><title>2026-09-17: 125 commits</title></rect><rect class="week-empty" x="814.65" y="528" width="13.35" height="116" rx="1"/><rect class="week" x="814.65" y="644" width="13.35" height="0" rx="1"><title>2026-09-24: 4 commits</title></rect><text class="axis" x="32" y="660">2025-10-02</text><text class="axis" x="828" y="660" text-anchor="end">2026-09-24</text><text class="axis" x="828" y="540" text-anchor="end">peak 883/wk</text><text class="subtitle" x="32" y="690">Generated by GitHub Actions</text></svg>
